<svg xmlns="http://www.w3.org/2000/svg" viewBox="0 0 100 100" width="100" height="100">
  <circle cx="50" cy="55" r="35" fill="#facc15" stroke="#ca8a04" stroke-width="3"/>
  <polygon points="20,35 15,10 40,25" fill="#facc15" stroke="#ca8a04" stroke-width="3"/>
  <polygon points="80,35 85,10 60,25" fill="#facc15" stroke="#ca8a04" stroke-width="3"/>
  <polygon points="23,32 19,15 37,25" fill="#fde047"/>
  <polygon points="77,32 81,15 63,25" fill="#fde047"/>
  <circle cx="38" cy="50" r="5" fill="#1e293b"/>
  <circle cx="62" cy="50" r="5" fill="#1e293b"/>
  <circle cx="40" cy="48" r="1.5" fill="#ffffff"/>
  <circle cx="64" cy="48" r="1.5" fill="#ffffff"/>
  <polygon points="50,57 46,62 54,62" fill="#f43f5e"/>
  <path d="M 42 66 Q 50 72 58 66" fill="none" stroke="#1e293b" stroke-width="2.5" stroke-linecap="round"/>
  <ellipse cx="28" cy="58" rx="4" ry="2.5" fill="#f43f5e" opacity="0.4"/>
  <ellipse cx="72" cy="58" rx="4" ry="2.5" fill="#f43f5e" opacity="0.4"/>
</svg>
